REM DIRINDEX 1\6,1\2\7,1\2\8,1\2\9,1\3\10,1\3\11,1\4\12,1\4\13,1\4\14,1\5\15,1\5\16,1\5\17
REM DIRNAME folder01,folder02,folder03,folder04,folder05,folder06,folder07,folder08,folder09,folder10,folder11,folder12,folder13,folder14,folder15,folder16,folder17
TITLE ""
FILE "P2Q_t2_0807-0824.mp3" MP3
  TRACK 01 AUDIO
    TITLE "7:cjc040_6253"
    INDEX 01 00:00:00
  TRACK 02 AUDIO
    TITLE "0:"
    INDEX 01 00:01:15
  TRACK 03 AUDIO
    TITLE "8:cjc040_6254"
    INDEX 01 00:01:69
  TRACK 04 AUDIO
    TITLE "0:"
    INDEX 01 00:03:39
  TRACK 05 AUDIO
    TITLE "9:cjc040_6255"
    INDEX 01 00:04:13
  TRACK 06 AUDIO
    TITLE "0:"
    INDEX 01 00:05:32
  TRACK 07 AUDIO
    TITLE "7:cjc040_6256"
    INDEX 01 00:07:11
  TRACK 08 AUDIO
    TITLE "0:"
    INDEX 01 00:08:15
  TRACK 09 AUDIO
    TITLE "8:cjc040_6257"
    INDEX 01 00:08:70
  TRACK 10 AUDIO
    TITLE "0:"
    INDEX 01 00:12:69
  TRACK 11 AUDIO
    TITLE "9:cjc040_6258"
    INDEX 01 00:13:47
  TRACK 12 AUDIO
    TITLE "0:"
    INDEX 01 00:14:54
  TRACK 13 AUDIO
    TITLE "7:cjc040_6259"
    INDEX 01 00:16:36
  TRACK 14 AUDIO
    TITLE "0:"
    INDEX 01 00:17:51
  TRACK 15 AUDIO
    TITLE "8:cjc040_6260"
    INDEX 01 00:18:27
  TRACK 16 AUDIO
    TITLE "0:"
    INDEX 01 00:20:65
  TRACK 17 AUDIO
    TITLE "9:cjc040_6261"
    INDEX 01 00:21:43
  TRACK 18 AUDIO
    TITLE "0:"
    INDEX 01 00:22:54
  TRACK 19 AUDIO
    TITLE "7:cjc040_6262"
    INDEX 01 00:24:39
  TRACK 20 AUDIO
    TITLE "0:"
    INDEX 01 00:25:41
  TRACK 21 AUDIO
    TITLE "8:cjc040_6263"
    INDEX 01 00:26:20
  TRACK 22 AUDIO
    TITLE "0:"
    INDEX 01 00:28:27
  TRACK 23 AUDIO
    TITLE "9:cjc040_6264"
    INDEX 01 00:29:07
  TRACK 24 AUDIO
    TITLE "0:"
    INDEX 01 00:30:18
  TRACK 25 AUDIO
    TITLE "7:cjc040_6265"
    INDEX 01 00:31:69
  TRACK 26 AUDIO
    TITLE "0:"
    INDEX 01 00:33:28
  TRACK 27 AUDIO
    TITLE "8:cjc040_6266"
    INDEX 01 00:34:06
  TRACK 28 AUDIO
    TITLE "0:"
    INDEX 01 00:35:35
  TRACK 29 AUDIO
    TITLE "9:cjc040_6267"
    INDEX 01 00:36:17
  TRACK 30 AUDIO
    TITLE "0:"
    INDEX 01 00:37:54
  TRACK 31 AUDIO
    TITLE "7:cjc040_6268"
    INDEX 01 00:39:35
  TRACK 32 AUDIO
    TITLE "0:"
    INDEX 01 00:40:42
  TRACK 33 AUDIO
    TITLE "8:cjc040_6269"
    INDEX 01 00:41:24
  TRACK 34 AUDIO
    TITLE "0:"
    INDEX 01 00:42:57
  TRACK 35 AUDIO
    TITLE "9:cjc040_6270"
    INDEX 01 00:43:39
  TRACK 36 AUDIO
    TITLE "0:"
    INDEX 01 00:44:50
  TRACK 37 AUDIO
    TITLE "7:cjc040_6271"
    INDEX 01 00:46:33
  TRACK 38 AUDIO
    TITLE "0:"
    INDEX 01 00:47:40
  TRACK 39 AUDIO
    TITLE "8:cjc040_6272"
    INDEX 01 00:48:22
  TRACK 40 AUDIO
    TITLE "0:"
    INDEX 01 00:50:50
  TRACK 41 AUDIO
    TITLE "9:cjc040_6273"
    INDEX 01 00:51:28
  TRACK 42 AUDIO
    TITLE "0:"
    INDEX 01 00:52:39
  TRACK 43 AUDIO
    TITLE "7:cjc040_6274"
    INDEX 01 00:54:17
  TRACK 44 AUDIO
    TITLE "0:"
    INDEX 01 00:55:20
  TRACK 45 AUDIO
    TITLE "8:cjc040_6275"
    INDEX 01 00:56:04
  TRACK 46 AUDIO
    TITLE "0:"
    INDEX 01 00:57:09
  TRACK 47 AUDIO
    TITLE "9:cjc040_6276"
    INDEX 01 00:57:62
  TRACK 48 AUDIO
    TITLE "0:"
    INDEX 01 00:58:66
  TRACK 49 AUDIO
    TITLE "7:cjc040_6277"
    INDEX 01 01:00:49
  TRACK 50 AUDIO
    TITLE "0:"
    INDEX 01 01:01:62
  TRACK 51 AUDIO
    TITLE "8:cjc040_6278"
    INDEX 01 01:02:40
  TRACK 52 AUDIO
    TITLE "0:"
    INDEX 01 01:05:32
  TRACK 53 AUDIO
    TITLE "9:cjc040_6279"
    INDEX 01 01:06:08
  TRACK 54 AUDIO
    TITLE "0:"
    INDEX 01 01:07:27
  TRACK 55 AUDIO
    TITLE "7:cjc040_6280"
    INDEX 01 01:09:09
  TRACK 56 AUDIO
    TITLE "0:"
    INDEX 01 01:10:30
  TRACK 57 AUDIO
    TITLE "8:cjc040_6281"
    INDEX 01 01:11:13
  TRACK 58 AUDIO
    TITLE "0:"
    INDEX 01 01:12:54
  TRACK 59 AUDIO
    TITLE "9:cjc040_6282"
    INDEX 01 01:13:32
  TRACK 60 AUDIO
    TITLE "0:"
    INDEX 01 01:14:51
  TRACK 61 AUDIO
    TITLE "7:cjc040_6283"
    INDEX 01 01:16:34
  TRACK 62 AUDIO
    TITLE "0:"
    INDEX 01 01:17:53
  TRACK 63 AUDIO
    TITLE "8:cjc040_6284"
    INDEX 01 01:18:35
  TRACK 64 AUDIO
    TITLE "0:"
    INDEX 01 01:22:21
  TRACK 65 AUDIO
    TITLE "9:cjc040_6285"
    INDEX 01 01:22:70
  TRACK 66 AUDIO
    TITLE "0:"
    INDEX 01 01:24:14
  TRACK 67 AUDIO
    TITLE "7:cjc040_6286"
    INDEX 01 01:25:68
  TRACK 68 AUDIO
    TITLE "0:"
    INDEX 01 01:27:06
  TRACK 69 AUDIO
    TITLE "8:cjc040_6287"
    INDEX 01 01:27:55
  TRACK 70 AUDIO
    TITLE "0:"
    INDEX 01 01:29:13
  TRACK 71 AUDIO
    TITLE "9:cjc040_6288"
    INDEX 01 01:29:64
  TRACK 72 AUDIO
    TITLE "0:"
    INDEX 01 01:31:00
  TRACK 73 AUDIO
    TITLE "7:cjc040_6289"
    INDEX 01 01:32:45
  TRACK 74 AUDIO
    TITLE "0:"
    INDEX 01 01:33:74
  TRACK 75 AUDIO
    TITLE "8:cjc040_6290"
    INDEX 01 01:34:48
  TRACK 76 AUDIO
    TITLE "0:"
    INDEX 01 01:39:33
  TRACK 77 AUDIO
    TITLE "9:cjc040_6291"
    INDEX 01 01:40:15
  TRACK 78 AUDIO
    TITLE "0:"
    INDEX 01 01:41:48
  TRACK 79 AUDIO
    TITLE "7:cjc040_6292"
    INDEX 01 01:43:23
  TRACK 80 AUDIO
    TITLE "0:"
    INDEX 01 01:44:40
  TRACK 81 AUDIO
    TITLE "8:cjc040_6293"
    INDEX 01 01:45:18
  TRACK 82 AUDIO
    TITLE "0:"
    INDEX 01 01:47:37
  TRACK 83 AUDIO
    TITLE "9:cjc040_6294"
    INDEX 01 01:48:12
  TRACK 84 AUDIO
    TITLE "0:"
    INDEX 01 01:49:35
  TRACK 85 AUDIO
    TITLE "7:cjc040_6295"
    INDEX 01 01:51:17
  TRACK 86 AUDIO
    TITLE "0:"
    INDEX 01 01:52:42
  TRACK 87 AUDIO
    TITLE "8:cjc040_6296"
    INDEX 01 01:53:18
  TRACK 88 AUDIO
    TITLE "0:"
    INDEX 01 01:56:04
  TRACK 89 AUDIO
    TITLE "9:cjc040_6297"
    INDEX 01 01:56:57
  TRACK 90 AUDIO
    TITLE "0:"
    INDEX 01 01:58:03
  TRACK 91 AUDIO
    TITLE "7:cjc040_6298"
    INDEX 01 01:59:61
  TRACK 92 AUDIO
    TITLE "0:"
    INDEX 01 02:01:11
  TRACK 93 AUDIO
    TITLE "8:cjc040_6299"
    INDEX 01 02:01:62
  TRACK 94 AUDIO
    TITLE "0:"
    INDEX 01 02:03:30
  TRACK 95 AUDIO
    TITLE "9:cjc040_6300"
    INDEX 01 02:04:08
  TRACK 96 AUDIO
    TITLE "0:"
    INDEX 01 02:05:38
  TRACK 97 AUDIO
    TITLE "7:cjc040_6301"
    INDEX 01 02:07:18
  TRACK 98 AUDIO
    TITLE "0:"
    INDEX 01 02:08:23
  TRACK 99 AUDIO
    TITLE "8:cjc040_6302"
    INDEX 01 02:09:09
  TRACK 100 AUDIO
    TITLE "0:"
    INDEX 01 02:11:17
  TRACK 101 AUDIO
    TITLE "9:cjc040_6303"
    INDEX 01 02:11:68
  TRACK 102 AUDIO
    TITLE "0:"
    INDEX 01 02:13:03
  TRACK 103 AUDIO
    TITLE "7:cjc040_6304"
    INDEX 01 02:14:63
  TRACK 104 AUDIO
    TITLE "0:"
    INDEX 01 02:15:66
  TRACK 105 AUDIO
    TITLE "8:cjc040_6305"
    INDEX 01 02:16:44
  TRACK 106 AUDIO
    TITLE "0:"
    INDEX 01 02:19:11
  TRACK 107 AUDIO
    TITLE "9:cjc040_6306"
    INDEX 01 02:19:68
  TRACK 108 AUDIO
    TITLE "0:"
    INDEX 01 02:20:71
